<svg xmlns="http://www.w3.org/2000/svg" width="20" height="20" viewBox="0 0 20 20">
  <path id="instagram-wubc" d="M13.887,9.15h1.254v5.395a.6.6,0,0,1-.6.6H5.455a.6.6,0,0,1-.6-.6V9.15H6.113a3.979,3.979,0,1,0,7.774,0ZM10,12.68A2.68,2.68,0,1,0,7.32,10,2.68,2.68,0,0,0,10,12.68Zm3.211-5.433h1.021a.542.542,0,0,0,.542-.542V5.685a.542.542,0,0,0-.542-.542H13.211a.542.542,0,0,0-.542.542V6.706A.542.542,0,0,0,13.211,7.248ZM20,0V20H0V0ZM16.37,5.237A1.607,1.607,0,0,0,14.763,3.63H5.237A1.607,1.607,0,0,0,3.63,5.237v9.527A1.607,1.607,0,0,0,5.237,16.37h9.527a1.607,1.607,0,0,0,1.607-1.607Z" fill="#5f6468"/>
</svg>
