<svg xmlns="http://www.w3.org/2000/svg" width="19.658" height="19.658" viewBox="0 0 19.658 19.658">
  <path id="social_wubc" d="M17.513,0a2.144,2.144,0,0,0-1.885,3.167L12.115,6.68a2.84,2.84,0,0,0-3.5,0L5.873,3.938a1.411,1.411,0,0,0,.2-.722,1.43,1.43,0,1,0-1.43,1.43,1.411,1.411,0,0,0,.722-.2L8.109,7.185a2.841,2.841,0,0,0,0,3.5L3.583,15.212a2.123,2.123,0,1,0,.447.564l4.585-4.585a2.843,2.843,0,0,0,1.393.579V15.4a2.145,2.145,0,1,0,.715,0V11.77a2.843,2.843,0,0,0,1.393-.579l2.741,2.741a1.41,1.41,0,0,0-.2.722,1.43,1.43,0,1,0,1.43-1.43,1.411,1.411,0,0,0-.722.2l-2.741-2.741a2.841,2.841,0,0,0,0-3.5l3.454-3.454A2.143,2.143,0,1,0,17.513,0ZM3.932,3.217a.715.715,0,1,1,.715.715A.716.716,0,0,1,3.932,3.217ZM2.145,18.228a1.43,1.43,0,1,1,1.43-1.43A1.431,1.431,0,0,1,2.145,18.228Zm9.65-.715a1.43,1.43,0,1,1-1.43-1.43A1.431,1.431,0,0,1,11.795,17.513Zm-1.43-6.434A2.145,2.145,0,1,1,12.51,8.935,2.147,2.147,0,0,1,10.365,11.08ZM16.8,14.654a.715.715,0,1,1-.715-.715A.716.716,0,0,1,16.8,14.654Zm.715-11.08a1.43,1.43,0,1,1,1.43-1.43A1.431,1.431,0,0,1,17.513,3.574Z" fill="#24974c"/>
</svg>
