<svg id="youtube-wubc" xmlns="http://www.w3.org/2000/svg" width="19" height="19" viewBox="0 0 19 19">
  <path id="Path_2559" data-name="Path 2559" d="M171.137,272.974a.119.119,0,0,1-.013.069.74.74,0,0,1-.329.257.166.166,0,0,1-.238-.133.751.751,0,0,1-.01-.15c0-.919,0-2.8,0-2.827h-.678c0,.025,0,2.651,0,3.147a.95.95,0,0,0,.07.392.392.392,0,0,0,.308.245.638.638,0,0,0,.319-.029,1.248,1.248,0,0,0,.524-.376l.051-.055v.412h.68v-3.743l-.68,0Z" transform="translate(-162.782 -258.92)" fill="#5f6468"/>
  <path id="Path_2560" data-name="Path 2560" d="M234.912,240.018a.591.591,0,0,0-.706-.321.782.782,0,0,0-.392.249.69.69,0,0,0-.073.116v-1.668h-.681v5.068h.681v-.284l.066.07a.768.768,0,0,0,.58.265.557.557,0,0,0,.579-.41,1.242,1.242,0,0,0,.056-.391q0-1.063,0-2.125A1.317,1.317,0,0,0,234.912,240.018Zm-.593,2.609a.55.55,0,0,1-.012.113.231.231,0,0,1-.3.182.447.447,0,0,1-.238-.146l-.022-.029v-.055l0-2.25a.186.186,0,0,1,.047-.07.355.355,0,0,1,.279-.1.227.227,0,0,1,.2.14.6.6,0,0,1,.047.211C234.321,241.287,234.32,241.957,234.319,242.627Z" transform="translate(-223.342 -228.455)" fill="#5f6468"/>
  <path id="Path_2561" data-name="Path 2561" d="M212.132,111.43a.288.288,0,0,0,.288-.288v-2.033a.288.288,0,0,0-.576,0v2.033A.288.288,0,0,0,212.132,111.43Z" transform="translate(-203.012 -104.284)" fill="#5f6468"/>
  <path id="Path_2562" data-name="Path 2562" d="M115.669,238.405h-2.36v.726h.8v4.341h.768V239.13h.8Z" transform="translate(-108.585 -228.466)" fill="#5f6468"/>
  <path id="Path_2563" data-name="Path 2563" d="M293.964,270.509v.481a.3.3,0,1,1-.607,0v-.935h1.3s.007-.652,0-.948a2.014,2.014,0,0,0-.038-.378.825.825,0,0,0-.562-.668,1.188,1.188,0,0,0-.3-.054.991.991,0,0,0-.848.327,1.121,1.121,0,0,0-.268.78c0,.555,0,1.11,0,1.665a1.98,1.98,0,0,0,.05.423.9.9,0,0,0,.515.656,1.139,1.139,0,0,0,.65.066.833.833,0,0,0,.72-.59,3.39,3.39,0,0,0,.078-.826Zm-.607-1.559a.3.3,0,1,1,.607,0v.525h-.607Z" transform="translate(-280.448 -256.831)" fill="#5f6468"/>
  <path id="Path_2564" data-name="Path 2564" d="M0,0V19H19V0ZM10.7,3.96H11.4V6.83a.648.648,0,0,0,.01.114.157.157,0,0,0,.222.134.743.743,0,0,0,.335-.257.124.124,0,0,0,.01-.07V3.96h.7V7.723h-.7v-.4c-.077.076-.143.147-.215.211a.942.942,0,0,1-.443.23.442.442,0,0,1-.566-.3.994.994,0,0,1-.045-.281ZM9.12,3.866h0a1,1,0,0,1,1,1V6.818a1,1,0,0,1-1,1h0a1,1,0,0,1-1-1V4.864A1,1,0,0,1,9.12,3.866ZM6.435,2.63s.317,1.347.468,1.985h0c.151-.638.468-1.985.468-1.985h.793s-.61,2.022-.882,2.923a.358.358,0,0,0-.014.1V7.722H6.538V5.655a.359.359,0,0,0-.014-.1c-.273-.9-.882-2.923-.882-2.923Zm8.723,12a1.7,1.7,0,0,1-1.663,1.7q-3.994.086-7.99,0a1.7,1.7,0,0,1-1.663-1.7V10.469A1.7,1.7,0,0,1,5.5,8.77q3.995-.086,7.99,0a1.7,1.7,0,0,1,1.663,1.7v4.159Z" fill="#5f6468"/>
</svg>
