<!-- Generator: Adobe Illustrator 18.1.1, SVG Export Plug-In  -->
<svg version="1.1"
   xmlns="http://www.w3.org/2000/svg" xmlns:xlink="http://www.w3.org/1999/xlink" xmlns:a="http://ns.adobe.com/AdobeSVGViewerExtensions/3.0/"
   x="0px" y="0px" width="13.3px" height="18px" viewBox="0 0 13.3 18" enable-background="new 0 0 13.3 18" xml:space="preserve">
<defs>
</defs>
<g>
  <path fill="#00C752" d="M6.6,9.7c-1.7,0-3.1-1.4-3.1-3.1s1.4-3.1,3.1-3.1s3.1,1.4,3.1,3.1S8.3,9.7,6.6,9.7z M6.6,4.1
    c-1.4,0-2.5,1.1-2.5,2.5s1.1,2.5,2.5,2.5S9.2,8,9.2,6.6S8,4.1,6.6,4.1z"/>
  <g>
    <path fill="#00C752" d="M6.6,18c-0.1,0-0.2,0-0.2-0.1C6.2,17.6,0,10.2,0,6.6C0,3,3,0,6.6,0s6.6,3,6.6,6.6c0,3.6-6.2,11-6.4,11.3
      C6.8,18,6.7,18,6.6,18z M6.6,0.5c-3.4,0-6.1,2.7-6.1,6.1c0,3,5,9.3,6.1,10.7c1.1-1.3,6.1-7.7,6.1-10.7C12.7,3.3,10,0.5,6.6,0.5z"
      />
  </g>
</g>
</svg>
