<!-- Generator: Adobe Illustrator 18.1.1, SVG Export Plug-In  -->
<svg version="1.1"
   xmlns="http://www.w3.org/2000/svg" xmlns:xlink="http://www.w3.org/1999/xlink" xmlns:a="http://ns.adobe.com/AdobeSVGViewerExtensions/3.0/"
   x="0px" y="0px" width="111.1px" height="116.5px" viewBox="0 0 111.1 116.5" enable-background="new 0 0 111.1 116.5"
   xml:space="preserve">
<defs>
</defs>
<g>
  <g opacity="0.95">
    <g id="XMLID_2_">
      <g>
        <g>
          <g>
            <polyline fill="#00C853" points="65.4,49.4 63.9,41 63.9,41            "/>
          </g>
        </g>
        <g>
          <g>
            <polygon fill="#00C853" points="111.1,57.6 74.6,66.2 65.3,68.4 56.1,57.9 56.1,57.8 110.6,57.6 110.6,57.5            "/>
          </g>
        </g>
        <g>
          <g>
            <polygon fill="#00C853" points="84.6,30.9 70.9,52.1 63.8,50.9             "/>
          </g>
        </g>
        <g>
          <g>
            <polygon fill="#00C853" points="83.3,85.5 61.9,72.9 61.9,72.9 63.3,66.1             "/>
          </g>
        </g>
        <g>
          <g>
            <polyline fill="#00C853" points="65.3,68.4 74.6,66.2 74.7,66.5            "/>
          </g>
        </g>
        <g>
          <g>
            <polygon fill="#00C853" points="63.9,41 65.4,49.4 56.1,57.6 56.6,0            "/>
          </g>
        </g>
        <g>
          <g>
            <polygon fill="#00C853" points="46.4,67.8 56,57.8 56.1,57.9 55.7,116.5 47.9,75.9            "/>
          </g>
        </g>
        <g>
          <g>
            <polygon fill="#00C853" points="56,57.8 0,57.9 37.1,51.3 45.9,49.7            "/>
          </g>
        </g>
        <g>
          <g>
            <polyline fill="#00C853" points="46.4,67.8 47.9,75.9 47.5,75.9            "/>
          </g>
        </g>
        <g>
          <g>
            <polygon fill="#00C853" points="47.8,42 46.2,49.6 26.4,28.4             "/>
          </g>
        </g>
        <g>
          <g>
            <polygon fill="#00C853" points="46.6,67.6 25.6,87.4 38.4,65.9             "/>
          </g>
        </g>
        <g>
          <g>
            <polyline fill="#00C853" points="45.9,49.7 37.1,51.3 37,51.1            "/>
          </g>
        </g>
      </g>
      <g>
        <g>
          <g>
            <rect x="0" y="57.6" fill="#00C853" width="110.6" height="0.3"/>
          </g>
        </g>
        <g>
          <g>
            <rect x="56" y="0" fill="#00C853" width="0.3" height="116.5"/>
          </g>
        </g>
        <g>
          <g>
            
              <rect x="44.5" y="53.6" transform="matrix(0.7798 0.626 -0.626 0.7798 44.8516 -20.0885)" fill="#00C853" width="13" height="0.3"/>
          </g>
        </g>
        <g>
          <g>
            <polygon fill="#00C853" points="56.1,57.9 55.9,57.7 56,57.5 65.3,49.3 65.5,49.6             "/>
          </g>
        </g>
        <g>
          <g>
            
              <rect x="51.1" y="55.8" transform="matrix(0.7224 0.6914 -0.6914 0.7224 57.6396 -17.9833)" fill="#00C853" width="0.3" height="13.9"/>
          </g>
        </g>
        <g>
          <g>
            <polygon fill="#00C853" points="65.2,68.5 55.9,57.9 56.1,57.7 56.3,57.8 65.4,68.3             "/>
          </g>
        </g>
        <g>
          <g>
            <line fill="#00C853" x1="64" y1="41.1" x2="63.9" y2="40.8"/>
          </g>
        </g>
        <g>
          <g>
            <line fill="#00C853" x1="74.6" y1="66.6" x2="74.8" y2="66.4"/>
          </g>
          <g>
            <line fill="#00C853" x1="63.7" y1="76.6" x2="63.8" y2="76.3"/>
          </g>
        </g>
        <g>
          <g>
            <line fill="#00C853" x1="65.5" y1="49.5" x2="65.3" y2="49.3"/>
          </g>
        </g>
        <g>
          <g>
            <line fill="#00C853" x1="46.3" y1="67.7" x2="46.5" y2="68"/>
          </g>
        </g>
        <g>
          <g>
            <line fill="#00C853" x1="65.2" y1="68.5" x2="65.4" y2="68.3"/>
          </g>
        </g>
        <g>
          <g>
            <line fill="#00C853" x1="46" y1="49.6" x2="45.8" y2="49.8"/>
          </g>
        </g>
      </g>
    </g>
  </g>
  <circle fill="none" stroke="#00C853" stroke-width="3" stroke-miterlimit="10" cx="55.5" cy="58.3" r="32.8"/>
</g>
</svg>
