<!-- Generator: Adobe Illustrator 18.1.1, SVG Export Plug-In  -->
<svg version="1.1"
   xmlns="http://www.w3.org/2000/svg" xmlns:xlink="http://www.w3.org/1999/xlink" xmlns:a="http://ns.adobe.com/AdobeSVGViewerExtensions/3.0/"
   x="0px" y="0px" width="52.4px" height="55px" viewBox="0 0 52.4 55" enable-background="new 0 0 52.4 55" xml:space="preserve">
<defs>
</defs>
<g>
  <g id="XMLID_1_">
    <g>
      <g>
        <g>
          <polyline fill="#00E676" points="30.9,23.3 30.2,19.3 30.2,19.3          "/>
        </g>
      </g>
      <g>
        <g>
          <polygon fill="#00E676" points="52.4,27.2 35.2,31.2 30.8,32.3 26.5,27.3 26.5,27.3 52.2,27.2 52.2,27.1           "/>
        </g>
      </g>
      <g>
        <g>
          <polygon fill="#00E676" points="39.9,14.6 33.4,24.6 30.1,24           "/>
        </g>
      </g>
      <g>
        <g>
          <polygon fill="#00E676" points="39.3,40.4 29.2,34.4 29.2,34.4 29.9,31.2           "/>
        </g>
      </g>
      <g>
        <g>
          <polyline fill="#00E676" points="30.8,32.3 35.2,31.2 35.3,31.4          "/>
        </g>
      </g>
      <g>
        <g>
          <polygon fill="#00E676" points="30.2,19.3 30.9,23.3 26.5,27.2 26.7,0          "/>
        </g>
      </g>
      <g>
        <g>
          <polygon fill="#00E676" points="21.9,32 26.4,27.3 26.5,27.3 26.3,55 22.6,35.8           "/>
        </g>
      </g>
      <g>
        <g>
          <polygon fill="#00E676" points="26.4,27.3 0,27.3 17.5,24.2 21.7,23.4          "/>
        </g>
      </g>
      <g>
        <g>
          <polyline fill="#00E676" points="21.9,32 22.6,35.8 22.4,35.8          "/>
        </g>
      </g>
      <g>
        <g>
          <polygon fill="#00E676" points="22.6,19.8 21.8,23.4 12.5,13.4           "/>
        </g>
      </g>
      <g>
        <g>
          <polygon fill="#00E676" points="22,31.9 12.1,41.2 18.1,31.1           "/>
        </g>
      </g>
      <g>
        <g>
          <polyline fill="#00E676" points="21.7,23.4 17.5,24.2 17.5,24.1          "/>
        </g>
      </g>
    </g>
    <g>
      <g>
        <g>
          <rect x="0" y="27.2" fill="#00E676" width="52.2" height="0.1"/>
        </g>
      </g>
      <g>
        <g>
          <rect x="26.4" y="0" fill="#00E676" width="0.1" height="55"/>
        </g>
      </g>
      <g>
        <g>
          
            <rect x="21" y="25.3" transform="matrix(0.7798 0.626 -0.626 0.7798 21.1701 -9.4818)" fill="#00E676" width="6.1" height="0.1"/>
        </g>
      </g>
      <g>
        <g>
          <polygon fill="#00E676" points="26.5,27.3 26.4,27.2 26.5,27.2 30.8,23.3 30.9,23.4           "/>
        </g>
      </g>
      <g>
        <g>
          
            <rect x="24.1" y="26.4" transform="matrix(0.7224 0.6914 -0.6914 0.7224 27.206 -8.4881)" fill="#00E676" width="0.1" height="6.6"/>
        </g>
      </g>
      <g>
        <g>
          <polygon fill="#00E676" points="30.8,32.3 26.4,27.3 26.5,27.2 26.6,27.3 30.9,32.2           "/>
        </g>
      </g>
      <g>
        <g>
          <line fill="#00E676" x1="30.2" y1="19.4" x2="30.1" y2="19.3"/>
        </g>
      </g>
      <g>
        <g>
          <line fill="#00E676" x1="35.2" y1="31.4" x2="35.3" y2="31.3"/>
        </g>
        <g>
          <line fill="#00E676" x1="30" y1="36.1" x2="30.1" y2="36"/>
        </g>
      </g>
      <g>
        <g>
          <line fill="#00E676" x1="30.9" y1="23.4" x2="30.8" y2="23.3"/>
        </g>
      </g>
      <g>
        <g>
          <line fill="#00E676" x1="21.9" y1="32" x2="22" y2="32.1"/>
        </g>
      </g>
      <g>
        <g>
          <line fill="#00E676" x1="30.8" y1="32.3" x2="30.9" y2="32.2"/>
        </g>
      </g>
      <g>
        <g>
          <line fill="#00E676" x1="21.7" y1="23.4" x2="21.6" y2="23.5"/>
        </g>
      </g>
    </g>
  </g>
</g>
</svg>
