<!-- Generator: Adobe Illustrator 18.1.1, SVG Export Plug-In  -->
<svg version="1.1"
   xmlns="http://www.w3.org/2000/svg" xmlns:xlink="http://www.w3.org/1999/xlink" xmlns:a="http://ns.adobe.com/AdobeSVGViewerExtensions/3.0/"
   x="0px" y="0px" width="16px" height="11.4px" viewBox="0 0 16 11.4" enable-background="new 0 0 16 11.4" xml:space="preserve">
<defs>
</defs>
<g>
  <path fill="#00C752" d="M14.7,11.4H1.3c-0.7,0-1.3-0.6-1.3-1.3V1.3C0,0.6,0.6,0,1.3,0h13.4C15.4,0,16,0.6,16,1.3v8.8
    C16,10.8,15.4,11.4,14.7,11.4z M1.3,0.5c-0.4,0-0.8,0.3-0.8,0.8v8.8c0,0.4,0.3,0.8,0.8,0.8h13.4c0.4,0,0.8-0.3,0.8-0.8V1.3
    c0-0.4-0.3-0.8-0.8-0.8H1.3z"/>
  <path fill="#00C752" d="M8,7C7.7,7,7.3,6.9,7.1,6.6L0.5,0.9c-0.1-0.1-0.1-0.3,0-0.4c0.1-0.1,0.3-0.1,0.4,0l6.6,5.7
    c0.3,0.3,0.9,0.3,1.2,0l6.6-5.7c0.1-0.1,0.3-0.1,0.4,0c0.1,0.1,0.1,0.3,0,0.4L8.9,6.6C8.7,6.9,8.3,7,8,7z"/>
</g>
</svg>
