<!-- Generator: Adobe Illustrator 18.1.1, SVG Export Plug-In  -->
<svg version="1.1"
   xmlns="http://www.w3.org/2000/svg" xmlns:xlink="http://www.w3.org/1999/xlink" xmlns:a="http://ns.adobe.com/AdobeSVGViewerExtensions/3.0/"
   x="0px" y="0px" width="14px" height="14px" viewBox="0 0 14 14" enable-background="new 0 0 14 14" xml:space="preserve">
<defs>
</defs>
<g>
  <path fill="#00C752" d="M11.3,14c-0.6,0-1.3-0.1-2.1-0.4C7.5,12.9,5.7,11.7,4,10C2.3,8.3,1.1,6.5,0.4,4.8c-0.6-1.5-0.6-2.8,0-3.4
    c0.1-0.1,0.2-0.2,0.3-0.3C1.2,0.6,1.8,0,2.6,0c0.5,0,1.1,0.4,1.6,1c1.6,2,0.9,2.7,0,3.5L4.1,4.7C4,4.8,3.7,5.5,6.1,7.9
    c0.8,0.8,1.5,1.4,2,1.7C8.4,9.8,9,10.1,9.3,9.9l0.1-0.1c0.8-0.8,1.5-1.6,3.5,0c0.7,0.5,1,1.1,1,1.6c0,0.8-0.6,1.4-1.2,1.9
    c-0.1,0.1-0.2,0.2-0.3,0.3C12.3,13.9,11.8,14,11.3,14z M2.6,0.5C2,0.5,1.5,1,1,1.5C0.9,1.6,0.9,1.7,0.8,1.8
    C0.3,2.2,0.4,3.3,0.9,4.6c0.6,1.6,1.8,3.4,3.5,5c1.6,1.6,3.4,2.8,5,3.5c1.3,0.5,2.5,0.5,2.9,0.1c0.1-0.1,0.2-0.2,0.3-0.3
    c0.5-0.5,1-1,1-1.6c0-0.4-0.3-0.8-0.9-1.3c-1.7-1.3-2.1-0.9-2.9-0.1l-0.2,0.2c-0.4,0.4-1,0.3-1.8-0.2C7.3,9.6,6.6,9,5.8,8.2
    c-2-2-2.6-3.2-2-3.8l0.2-0.1C4.7,3.5,5.2,3,3.9,1.3C3.4,0.8,3,0.5,2.6,0.5C2.6,0.5,2.6,0.5,2.6,0.5z"/>
</g>
</svg>
