<?xml version="1.0" encoding="utf-8"?>
<!-- Generator: Adobe Illustrator 18.1.1, SVG Export Plug-In . SVG Version: 6.00 Build 0)  -->
<svg version="1.1" xmlns="http://www.w3.org/2000/svg" xmlns:xlink="http://www.w3.org/1999/xlink" x="0px" y="0px"
	 viewBox="0 0 50 50" enable-background="new 0 0 50 50" xml:space="preserve">
<g>
	<g>
		<g>
			<g>
				<path d="M34.5,23H21.8v4.3h7.8c-1.2,3.7-4.6,6.4-8.7,6.4c-5,0-9.1-4.1-9.1-9.1c0-5,4.1-9.1,9.1-9.1
					c2.5,0,4.8,1,6.5,2.7l3.1-3.4c-2.5-2.4-5.8-3.9-9.6-3.9c-7.6,0-13.7,6.1-13.7,13.7s6.1,13.7,13.7,13.7c6.6,0,12.4-4.7,13.7-10.9
					L34.5,23L34.5,23L34.5,23z"/>
				<polygon points="42.8,23 40.2,23 40.2,20.4 38,20.4 38,23 35.4,23 35.4,25.2 38,25.2 38,27.8 40.2,27.8 
					40.2,25.2 42.8,25.2 				"/>
			</g>
		</g>
	</g>
</g>
</svg>
