<?xml version="1.0" encoding="utf-8"?>
<!-- Generator: Adobe Illustrator 18.1.1, SVG Export Plug-In . SVG Version: 6.00 Build 0)  -->
<svg version="1.1" xmlns="http://www.w3.org/2000/svg" xmlns:xlink="http://www.w3.org/1999/xlink" x="0px" y="0px"
	 viewBox="0 0 50 50" enable-background="new 0 0 50 50" xml:space="preserve">
<g>
	<g>
		<path d="M32.5,9.1l-3.6,0c-4.5,0-6.9,3-6.9,7.5V20h-4.6C17,20,17,20.4,17,20.7v5c0,0.3,0,1.2,0.4,1.2H22v12.1
			c0,0.3-0.4,0.9,0,0.9h5.2c0.3,0,0.8-0.6,0.8-0.9V27h4.5c0.3,0,0.6-0.6,0.6-0.9l0-5.2c0-0.2-0.1-0.5-0.2-0.6
			c-0.1-0.1-0.3-0.3-0.4-0.3H28v-2.8c0-1.4,0.1-2.2,2-2.2h2.7c0.3,0,0.4-0.2,0.4-0.6V9.7C33,9.4,32.9,9.1,32.5,9.1z"/>
	</g>
</g>
</svg>
