<!-- Generator: Adobe Illustrator 18.1.1, SVG Export Plug-In  -->
<svg version="1.1"
   xmlns="http://www.w3.org/2000/svg" xmlns:xlink="http://www.w3.org/1999/xlink" xmlns:a="http://ns.adobe.com/AdobeSVGViewerExtensions/3.0/"
   x="0px" y="0px" width="18.3px" height="11.4px" viewBox="0 0 18.3 11.4" enable-background="new 0 0 18.3 11.4"
   xml:space="preserve">
<defs>
</defs>
<g>
  <g>
    <g>
      <path fill="#757575" d="M17.9,4.8L17.9,4.8l-4.1-4.1C13.4,0.3,12.8,0,12.2,0L2.1,0C1.5,0,1,0.2,0.6,0.6S0,1.5,0,2.1l0,7.3
        c0,1.1,0.9,2.1,2.1,2.1h10.2c0.6,0,1.1-0.2,1.5-0.6L18,6.4c0.2-0.2,0.3-0.5,0.3-0.7C18.3,5.3,18.2,5,17.9,4.8z M12.9,10
        c-0.2,0.2-0.5,0.3-0.7,0.3l-10.2,0c-0.3,0-0.5-0.1-0.7-0.3S1,9.6,1,9.3l0-7.3c0-0.3,0.1-0.5,0.3-0.7S1.8,1,2.1,1l10.2,0
        c0.4,0,0.7,0.2,0.8,0.4l0,0l4.1,4.1l0.1,0.1l0.1,0L12.9,10z M10,4.2C9.2,5,9.2,6.3,10,7.1c0.8,0.8,2.1,0.8,2.9,0
        c0.8-0.8,0.8-2.1,0-2.9C12.1,3.4,10.8,3.4,10,4.2z M12.2,6.4c-0.4,0.4-1.1,0.4-1.5,0c-0.4-0.4-0.4-1.1,0-1.5
        c0.4-0.4,1.1-0.4,1.5,0S12.6,6,12.2,6.4z"/>
    </g>
  </g>
</g>
</svg>
